<?xml version="1.0" encoding="UTF-8"?>
<svg id="Camada_1" data-name="Camada 1" xmlns="http://www.w3.org/2000/svg" version="1.1" viewBox="0 0 1000 333">
  <defs>
    <style>
      .cls-1, .cls-2 {
        fill: #1b2340;
      }

      .cls-1, .cls-2, .cls-3 {
        stroke-width: 0px;
      }

      .cls-2, .cls-3 {
        fill-rule: evenodd;
      }

      .cls-3 {
        fill: #ff7f15;
      }
    </style>
  </defs>
  <g>
    <path class="cls-1" d="M437.2,263.5c-9.7-5.4-17.5-12.9-23.2-22.4-5.7-9.5-8.6-20.3-8.6-32.4s2.9-22.7,8.6-32.2c5.7-9.5,13.4-17,23.2-22.4,9.7-5.4,20.4-8.1,32.1-8.1s22.5,2.7,32.2,8.1c9.7,5.4,17.4,12.9,23,22.4,5.6,9.5,8.5,20.3,8.5,32.2s-2.8,22.9-8.5,32.4c-5.6,9.5-13.3,17-23.1,22.4-9.7,5.4-20.4,8.1-32.1,8.1s-22.3-2.7-32.1-8.1ZM489.1,244.6c5.7-3.3,10.2-8.1,13.4-14.3,3.2-6.2,4.8-13.4,4.8-21.6s-1.6-15.4-4.8-21.5c-3.2-6.1-7.7-10.9-13.4-14.1-5.7-3.3-12.3-4.9-19.8-4.9s-14.1,1.6-19.9,4.9c-5.8,3.3-10.3,8-13.5,14.1-3.2,6.1-4.8,13.3-4.8,21.5s1.6,15.4,4.8,21.6c3.2,6.2,7.7,11,13.5,14.3,5.8,3.3,12.4,5,19.9,5s14.1-1.7,19.8-5Z"/>
    <path class="cls-1" d="M649,270.3h-25l-56.5-84.1v84.1h-25v-122.8h25l56.5,84.3v-84.3h25v122.8Z"/>
    <path class="cls-1" d="M689.7,250.8h41v19.5h-66v-122.6h25v103.1Z"/>
    <path class="cls-1" d="M762.6,147.7v122.6h-25v-122.6h25Z"/>
    <path class="cls-1" d="M884.8,270.3h-25l-56.5-84.1v84.1h-25v-122.8h25l56.5,84.3v-84.3h25v122.8Z"/>
    <path class="cls-1" d="M925.4,167.5v30.7h41.9v19.5h-41.9v32.5h47.3v20h-72.2v-122.8h72.2v20h-47.3Z"/>
  </g>
  <g>
    <path class="cls-1" d="M415.1,68.7c2.7-4.7,6.5-8.4,11.2-11,4.7-2.6,10.1-4,15.9-4s12.9,1.7,18.1,5.2c5.2,3.5,8.8,8.3,10.9,14.4h-14.2c-1.4-2.9-3.4-5.1-6-6.5-2.6-1.4-5.5-2.2-8.9-2.2s-6.8.8-9.6,2.5c-2.8,1.7-5,4-6.5,7-1.6,3-2.3,6.6-2.3,10.6s.8,7.5,2.3,10.6c1.6,3,3.7,5.4,6.5,7,2.8,1.7,6,2.5,9.6,2.5s6.3-.7,8.9-2.2c2.6-1.5,4.5-3.7,6-6.6h14.2c-2.1,6.2-5.7,11-10.8,14.5-5.2,3.4-11.2,5.2-18.2,5.2s-11.2-1.3-15.9-4c-4.7-2.6-8.5-6.3-11.2-11-2.7-4.7-4.1-10-4.1-16s1.4-11.3,4.1-16Z"/>
    <path class="cls-1" d="M490.2,111.8c-4.8-2.7-8.7-6.4-11.5-11.1-2.8-4.7-4.2-10.1-4.2-16s1.4-11.2,4.2-16c2.8-4.7,6.7-8.4,11.5-11.1,4.8-2.7,10.1-4,15.9-4s11.1,1.3,15.9,4c4.8,2.7,8.6,6.4,11.4,11.1,2.8,4.7,4.2,10,4.2,16s-1.4,11.3-4.2,16c-2.8,4.7-6.6,8.4-11.4,11.1-4.8,2.7-10.1,4-15.9,4s-11.1-1.3-15.9-4ZM515.9,102.5c2.8-1.7,5-4,6.6-7.1,1.6-3.1,2.4-6.6,2.4-10.7s-.8-7.6-2.4-10.7c-1.6-3-3.8-5.4-6.6-7-2.8-1.6-6.1-2.4-9.8-2.4s-7,.8-9.8,2.4c-2.9,1.6-5.1,4-6.7,7-1.6,3-2.4,6.6-2.4,10.7s.8,7.6,2.4,10.7c1.6,3.1,3.8,5.4,6.7,7.1,2.9,1.7,6.1,2.5,9.8,2.5s7-.8,9.8-2.5Z"/>
    <path class="cls-1" d="M595.1,115.2h-12.4l-28-41.7v41.7h-12.4v-60.8h12.4l28,41.7v-41.7h12.4v60.8Z"/>
    <path class="cls-1" d="M612.6,113.7c-3.4-1.4-6.2-3.5-8.2-6.3-2-2.7-3-5.9-3.1-9.7h13.3c.2,2.5,1.1,4.5,2.7,5.9,1.6,1.4,3.8,2.2,6.7,2.2s5.2-.7,6.8-2c1.6-1.4,2.5-3.1,2.5-5.3s-.6-3.3-1.7-4.4c-1.1-1.2-2.5-2.1-4.2-2.7-1.7-.7-4-1.4-6.9-2.2-4-1.2-7.3-2.3-9.8-3.4-2.5-1.1-4.7-2.8-6.4-5.1-1.8-2.3-2.7-5.3-2.7-9.2s.9-6.7,2.7-9.4c1.8-2.7,4.4-4.7,7.7-6.1,3.3-1.4,7.1-2.1,11.3-2.1,6.4,0,11.5,1.5,15.5,4.6,4,3,6.2,7.3,6.6,12.7h-13.6c-.1-2.1-1-3.8-2.7-5.2-1.7-1.4-3.9-2-6.7-2s-4.3.6-5.8,1.8c-1.4,1.2-2.2,3-2.2,5.3s.5,3,1.6,4c1.1,1.1,2.4,1.9,4.1,2.6,1.6.7,3.9,1.4,6.8,2.3,4,1.2,7.3,2.3,9.8,3.5,2.5,1.2,4.7,2.9,6.5,5.2,1.8,2.3,2.7,5.4,2.7,9.1s-.9,6.3-2.6,9c-1.7,2.8-4.2,5-7.5,6.7-3.3,1.7-7.2,2.5-11.7,2.5s-8.2-.7-11.6-2.2Z"/>
    <path class="cls-1" d="M664.6,54.5v60.7h-12.4v-60.7h12.4Z"/>
    <path class="cls-1" d="M715.3,72.8c-1.4-2.6-3.4-4.5-5.8-5.8-2.5-1.3-5.4-2-8.7-2s-6.9.8-9.7,2.4c-2.8,1.6-5,3.9-6.6,7-1.6,3-2.4,6.5-2.4,10.4s.8,7.6,2.4,10.6c1.6,3,3.9,5.3,6.8,7,2.9,1.6,6.2,2.4,10.1,2.4s8.6-1.2,11.6-3.7c3-2.5,5-5.9,5.9-10.3h-21.2v-9.3h33.4v10.6c-.8,4.2-2.6,8.1-5.3,11.7-2.7,3.6-6.2,6.5-10.5,8.7-4.3,2.2-9.1,3.3-14.4,3.3s-11.3-1.3-16.1-4c-4.8-2.6-8.6-6.3-11.3-11s-4.1-10-4.1-16,1.4-11.3,4.1-16c2.7-4.7,6.5-8.4,11.3-11,4.8-2.6,10.1-4,16-4s13,1.7,18.1,5c5.1,3.3,8.7,8,10.6,14h-14.2Z"/>
    <path class="cls-1" d="M788.6,115.2h-12.4l-28-41.7v41.7h-12.4v-60.8h12.4l28,41.7v-41.7h12.4v60.8Z"/>
    <path class="cls-1" d="M834.2,103.7h-24.6l-4.1,11.6h-13l22.2-60.8h14.4l22.2,60.8h-13.1l-4.1-11.6ZM830.8,93.9l-8.9-25.4-8.9,25.4h17.8Z"/>
    <path class="cls-1" d="M893.8,58.3c4.9,2.5,8.7,6,11.4,10.7,2.7,4.6,4,10,4,16s-1.3,11.4-4,16c-2.7,4.6-6.5,8.1-11.4,10.6-4.9,2.5-10.6,3.7-17.1,3.7h-21.6v-60.7h21.6c6.5,0,12.2,1.2,17.1,3.7ZM891.3,99.7c3.5-3.5,5.3-8.4,5.3-14.7s-1.8-11.3-5.3-14.8-8.5-5.3-15-5.3h-8.7v40.1h8.7c6.5,0,11.5-1.7,15-5.2Z"/>
    <path class="cls-1" d="M926.8,111.8c-4.8-2.7-8.7-6.4-11.5-11.1-2.8-4.7-4.2-10.1-4.2-16s1.4-11.2,4.2-16c2.8-4.7,6.7-8.4,11.5-11.1,4.8-2.7,10.1-4,15.9-4s11.1,1.3,15.9,4c4.8,2.7,8.6,6.4,11.4,11.1,2.8,4.7,4.2,10,4.2,16s-1.4,11.3-4.2,16c-2.8,4.7-6.6,8.4-11.4,11.1-4.8,2.7-10.1,4-15.9,4s-11.1-1.3-15.9-4ZM952.5,102.5c2.8-1.7,5-4,6.6-7.1,1.6-3.1,2.4-6.6,2.4-10.7s-.8-7.6-2.4-10.7c-1.6-3-3.8-5.4-6.6-7-2.8-1.6-6.1-2.4-9.8-2.4s-7,.8-9.8,2.4c-2.9,1.6-5.1,4-6.7,7-1.6,3-2.4,6.6-2.4,10.7s.8,7.6,2.4,10.7c1.6,3.1,3.8,5.4,6.7,7.1s6.1,2.5,9.8,2.5,7-.8,9.8-2.5Z"/>
  </g>
  <g>
    <path class="cls-2" d="M256.5,76.7c21.3,21.3,34.5,50.7,34.5,83.2s-13.2,61.9-34.5,83.2l22,22c26.9-26.9,43.6-64.1,43.6-105.2s-16.7-78.3-43.6-105.2l-22,22h0Z"/>
    <path class="cls-2" d="M259.8,159.9c0-23.9-9.7-45.5-25.4-61.2l-22,22c10,10,16.2,23.9,16.2,39.2s-6.2,29.2-16.2,39.2l22,22c15.7-15.7,25.4-37.3,25.4-61.2h0Z"/>
    <path class="cls-3" d="M173.3,42.3c21.2,0,41.1,5.6,58.3,15.4l22.6-22.6c-23.3-15.1-51.1-23.9-80.9-23.9C91.1,11.1,24.5,77.8,24.5,159.9s66.6,148.8,148.8,148.8,57.6-8.8,80.9-23.9l-22.6-22.6c-17.2,9.8-37.1,15.4-58.3,15.4-65,0-117.7-52.7-117.7-117.7s52.7-117.7,117.7-117.7h0Z"/>
    <path class="cls-2" d="M173.3,184.3c13.4,0,24.3-10.9,24.3-24.3s-10.9-24.3-24.3-24.3-24.3,10.9-24.3,24.3,10.9,24.3,24.3,24.3h0Z"/>
  </g>
</svg>